<?xml version="1.0" encoding="utf-8"?>
<!-- Generator: Adobe Illustrator 27.0.0, SVG Export Plug-In . SVG Version: 6.00 Build 0)  -->
<svg version="1.1" id="Layer_1" xmlns="http://www.w3.org/2000/svg" xmlns:xlink="http://www.w3.org/1999/xlink" x="0px" y="0px"
	 width="600px" height="650px" viewBox="0 0 600 650" style="enable-background:new 0 0 600 650;" xml:space="preserve">
<style type="text/css">
	.st0{fill-rule:evenodd;clip-rule:evenodd;fill:#2F713C;}
</style>
<path class="st0" d="M486,368.5l11.6-121.1l-55.3,1.9l-56.9,23.1l-25.3,2.4l-75.3-2.6l-3,65.5L248.6,271l-82.9-2.8l-3,65.3
	l-33.2-66.5l-18.8-0.7l13.7,260.9c0.7,19.6,3.5,26.1,22.8,32.2L302,608.3c27.6,8.7,40.3,6.7,57.2-2.2c19.6-10.3,42.8-24.9,65.3-39.7
	c-9.5-20.4-15-45.1-15-71.6C409.5,429.5,443,375.7,486,368.5L486,368.5z M523.7,456.3c10.6,0,9.8,25.1,9.1,31.4
	c-0.8,7.2-5.5,31.2-15.6,31.2c-10.6,0-9.8-25.1-9.1-31.4C508.9,480.3,513.6,456.3,523.7,456.3L523.7,456.3z M496.2,432.6
	c14.9-22.6,37.6-31.4,51.7-4c16,31.1,7.9,82.5-10.6,110.4c-15.2,23-37.9,31-51.7,4C469.7,512,477.7,460.7,496.2,432.6L496.2,432.6z
	 M499.6,408c-7.6,4.8-13.8,12.1-18.6,19.3c-20.3,30.7-28.5,85.3-11.1,119.2c1.4,2.6,2.9,5.2,4.7,7.6c-11.2-2.7-17.5-15.6-20.7-25.7
	c-9.6-30.2-2.4-73.2,14.9-99.4C474.9,419.8,487.4,406.2,499.6,408L499.6,408z M519.5,149.9l10.9-0.2c-24.2-22.9-43.9-40.2-72.1-58.5
	c-26.5-17.2-55.9-32.6-85.4-43.9c-19.6-7.5-39.5-12.1-60.6-10.9l-194,10.5c-13.6,0.7-15.6,15.1-18.8,25.6c1.8-0.2,3.6-0.4,5.3-0.4
	l196.7-6c27.7-0.8,53.1,1.1,78.5,13.3l38.4,18.3L519.5,149.9L519.5,149.9z M300.7,151.6c-17.7,0.1-25.1-1.3-41.8-7.6l-99.4-37.6
	l32.4-1l73.5,27.8c16.8,6.3,24.2,7.8,41.8,7.6l110.5-1l20.5,10.6L300.7,151.6L300.7,151.6z M372.3,229.8l11-1.6l57.1-23.2l93.7-3.2
	l0.2-14.4l-162.9,2.6L372.3,229.8L372.3,229.8z M43.5,219.8c102.1,3.1,204.1,6.9,306.2,10.4l-0.9-39.5l-304.5-5.3L43.5,219.8z"/>
</svg>
